<svg width="36" height="36" viewBox="0 0 36 36" fill="none" xmlns="http://www.w3.org/2000/svg">
<mask id="mask0_732_2388" style="mask-type:alpha" maskUnits="userSpaceOnUse" x="2" y="2" width="32" height="32">
<path d="M18 34C26.8366 34 34 26.8366 34 18C34 9.16344 26.8366 2 18 2C9.16344 2 2 9.16344 2 18C2 26.8366 9.16344 34 18 34Z" fill="#EA1717"/>
</mask>
<g mask="url(#mask0_732_2388)">
<path d="M18 34C26.8366 34 34 26.8366 34 18C34 9.16344 26.8366 2 18 2C9.16344 2 2 9.16344 2 18C2 26.8366 9.16344 34 18 34Z" fill="#EA1717"/>
<path d="M26.1942 11.7217H-1.24805C-1.80033 11.7217 -2.29559 12.1669 -2.35423 12.716L-3.78162 26.0829C-3.84027 26.6321 -3.44009 27.0772 -2.88781 27.0772H24.5545C25.1067 27.0772 25.602 26.6321 25.6606 26.0829L27.088 12.716C27.1467 12.1669 26.7465 11.7217 26.1942 11.7217Z" fill="white"/>
<path d="M20.0511 8.02832H18.8341C18.3132 8.02832 17.8582 8.42771 17.7885 8.94623L17.3927 11.8913C17.3145 12.4727 17.7478 12.9705 18.332 12.9705H19.6366C20.169 12.9705 20.6302 12.554 20.6858 12.0231L20.9939 9.07808C21.0536 8.50722 20.6235 8.02832 20.0511 8.02832Z" fill="white"/>
<path d="M10.9868 8.02832H9.77155C9.25222 8.02832 8.79818 8.42529 8.72652 8.94201L8.29346 12.0645C8.21263 12.6474 8.64633 13.148 9.23216 13.148H10.5372C11.0676 13.148 11.5277 12.7346 11.5858 12.2059L11.9291 9.08335C11.992 8.51058 11.5613 8.02832 10.9868 8.02832Z" fill="white"/>
<path d="M24.6156 27.0723C24.8192 27.0723 24.9212 26.805 24.7568 26.7022L-4.77979 8.21884C-5.49029 7.77423 -6.48671 8.44972 -6.37724 9.30178L-4.19264 26.3045C-4.13486 26.7542 -3.76546 27.0723 -3.30093 27.0723H24.6156Z" fill="#FFEFEF"/>
<path d="M20.0921 13.9094L19.6921 15.8934L13.9961 25.1094H10.4441L15.8681 16.4214H13.0201L12.6681 18.1494H9.96412L10.8121 13.9094H20.0921Z" fill="#EA1717"/>
</g>
</svg>
