<svg width="36" height="36" viewBox="0 0 36 36" fill="none" xmlns="http://www.w3.org/2000/svg">
<path d="M18 34C26.8366 34 34 26.8366 34 18C34 9.16344 26.8366 2 18 2C9.16344 2 2 9.16344 2 18C2 26.8366 9.16344 34 18 34Z" fill="#EA1717"/>
<path d="M12.1105 21.674H16.8085L16.2325 24.5H6.42249L6.87249 22.268L12.3805 17.984C13.0165 17.492 13.4545 17.078 13.6945 16.742C13.9345 16.394 14.0545 16.04 14.0545 15.68C14.0545 15.32 13.9225 15.038 13.6585 14.834C13.3945 14.618 13.0165 14.51 12.5245 14.51C12.0805 14.51 11.6545 14.618 11.2465 14.834C10.8505 15.05 10.4965 15.362 10.1845 15.77L7.80849 14.204C8.31249 13.424 9.02649 12.806 9.95049 12.35C10.8865 11.882 11.9245 11.648 13.0645 11.648C13.9645 11.648 14.7625 11.798 15.4585 12.098C16.1665 12.398 16.7185 12.818 17.1145 13.358C17.5105 13.886 17.7085 14.48 17.7085 15.14C17.7085 15.932 17.4865 16.67 17.0425 17.354C16.6105 18.038 15.8485 18.794 14.7565 19.622L12.1105 21.674ZM29.53 22.088H27.658L27.172 24.5H23.716L24.202 22.088H17.542L17.992 19.766L25.084 11.9H28.918L22.42 19.262H24.922L25.354 17.12H28.648L28.216 19.262H30.106L29.53 22.088Z" fill="white"/>
</svg>
