<svg width="36" height="36" viewBox="0 0 36 36" fill="none" xmlns="http://www.w3.org/2000/svg">
<mask id="mask0_732_2416" style="mask-type:alpha" maskUnits="userSpaceOnUse" x="2" y="2" width="32" height="32">
<path d="M18 34C26.8366 34 34 26.8366 34 18C34 9.16344 26.8366 2 18 2C9.16344 2 2 9.16344 2 18C2 26.8366 9.16344 34 18 34Z" fill="#EA1717"/>
</mask>
<g mask="url(#mask0_732_2416)">
<path d="M18 34C26.8366 34 34 26.8366 34 18C34 9.16344 26.8366 2 18 2C9.16344 2 2 9.16344 2 18C2 26.8366 9.16344 34 18 34Z" fill="#EA1717"/>
<path d="M25.9066 9.38574H-1.53564C-2.08793 9.38574 -2.58318 9.83092 -2.64183 10.3801L-4.36758 26.5409C-4.42622 27.0901 -4.02605 27.5353 -3.47376 27.5353H23.9685C24.5208 27.5353 25.016 27.0901 25.0747 26.5409L26.8004 10.3801C26.8591 9.83093 26.4589 9.38574 25.9066 9.38574Z" fill="white"/>
<path d="M24.0289 27.5303C24.2326 27.5303 24.3345 27.263 24.1701 27.1602L-5.36646 8.67685C-6.07696 8.23223 -7.07338 8.90773 -6.96391 9.75979L-4.77931 26.7625C-4.72153 27.2122 -4.35213 27.5303 -3.8876 27.5303H24.0289Z" fill="#FFEFEF"/>
<path d="M15.6076 24.3584C17.0076 24.3584 18.1424 23.2048 18.1424 21.7817C18.1424 20.3587 17.0076 19.2051 15.6076 19.2051C14.2076 19.2051 13.0728 20.3587 13.0728 21.7817C13.0728 23.2048 14.2076 24.3584 15.6076 24.3584Z" fill="#EA1717"/>
<path d="M19.2475 24.3584C20.6474 24.3584 21.7823 23.2048 21.7823 21.7817C21.7823 20.3587 20.6474 19.2051 19.2475 19.2051C17.8475 19.2051 16.7126 20.3587 16.7126 21.7817C16.7126 23.2048 17.8475 24.3584 19.2475 24.3584Z" fill="#EA1717"/>
<path d="M27.0014 12.1621H-3.74365V14.4387H27.0014V12.1621Z" fill="#EA1717"/>
</g>
</svg>
