<svg width="36" height="36" viewBox="0 0 36 36" fill="none" xmlns="http://www.w3.org/2000/svg">
<path d="M18 34C26.8366 34 34 26.8366 34 18C34 9.16344 26.8366 2 18 2C9.16344 2 2 9.16344 2 18C2 26.8366 9.16344 34 18 34Z" fill="#EA1717"/>
<path d="M11.8295 24.0339C10.2162 24.0339 8.9362 23.5606 7.98953 22.6139C7.0562 21.6539 6.58953 20.3272 6.58953 18.6339C6.58953 16.9272 6.90286 15.3806 7.52953 13.9939C8.16953 12.5939 9.0562 11.4939 10.1895 10.6939C11.3229 9.88057 12.6029 9.47391 14.0295 9.47391C15.6429 9.47391 16.9162 9.95391 17.8495 10.9139C18.7962 11.8606 19.2695 13.1806 19.2695 14.8739C19.2695 16.5806 18.9495 18.1339 18.3095 19.5339C17.6829 20.9206 16.8029 22.0206 15.6695 22.8339C14.5362 23.6339 13.2562 24.0339 11.8295 24.0339ZM12.2095 20.7939C12.8495 20.7939 13.4029 20.4806 13.8695 19.8539C14.3362 19.2272 14.6895 18.4606 14.9295 17.5539C15.1695 16.6472 15.2895 15.7872 15.2895 14.9739C15.2895 14.2006 15.1429 13.6339 14.8495 13.2739C14.5695 12.9006 14.1695 12.7139 13.6495 12.7139C13.0095 12.7139 12.4562 13.0272 11.9895 13.6539C11.5229 14.2806 11.1695 15.0472 10.9295 15.9539C10.6895 16.8606 10.5695 17.7206 10.5695 18.5339C10.5695 20.0406 11.1162 20.7939 12.2095 20.7939ZM22.1849 19.9019C21.6089 19.9019 21.1449 19.7299 20.7929 19.3859C20.4489 19.0419 20.2769 18.5699 20.2769 17.9699C20.2769 17.4579 20.3769 16.9939 20.5769 16.5779C20.7769 16.1619 21.0609 15.8379 21.4289 15.6059C21.8049 15.3659 22.2409 15.2459 22.7369 15.2459C23.3129 15.2459 23.7729 15.4179 24.1169 15.7619C24.4689 16.1059 24.6449 16.5779 24.6449 17.1779C24.6449 17.6899 24.5449 18.1539 24.3449 18.5699C24.1529 18.9859 23.8689 19.3139 23.4929 19.5539C23.1249 19.7859 22.6889 19.9019 22.1849 19.9019ZM27.7769 15.3539H29.5889L22.2809 23.7539H20.4569L27.7769 15.3539ZM22.3169 18.7619C22.6129 18.7619 22.8329 18.6099 22.9769 18.3059C23.1209 17.9939 23.1929 17.6419 23.1929 17.2499C23.1929 16.9539 23.1369 16.7379 23.0249 16.6019C22.9209 16.4579 22.7809 16.3859 22.6049 16.3859C22.3089 16.3859 22.0889 16.5419 21.9449 16.8539C21.8009 17.1579 21.7289 17.5059 21.7289 17.8979C21.7289 18.1939 21.7809 18.4139 21.8849 18.5579C21.9969 18.6939 22.1409 18.7619 22.3169 18.7619ZM27.3209 23.8619C26.7449 23.8619 26.2809 23.6939 25.9289 23.3579C25.5849 23.0139 25.4129 22.5379 25.4129 21.9299C25.4129 21.4179 25.5089 20.9579 25.7009 20.5499C25.9009 20.1339 26.1849 19.8099 26.5529 19.5779C26.9289 19.3379 27.3689 19.2179 27.8729 19.2179C28.4489 19.2179 28.9089 19.3899 29.2529 19.7339C29.6049 20.0699 29.7809 20.5379 29.7809 21.1379C29.7809 21.6499 29.6809 22.1139 29.4809 22.5299C29.2889 22.9459 29.0049 23.2739 28.6289 23.5139C28.2609 23.7459 27.8249 23.8619 27.3209 23.8619ZM27.4529 22.7339C27.7489 22.7339 27.9649 22.5779 28.1009 22.2659C28.2449 21.9539 28.3169 21.6019 28.3169 21.2099C28.3169 20.9139 28.2649 20.6979 28.1609 20.5619C28.0569 20.4179 27.9169 20.3459 27.7409 20.3459C27.4449 20.3459 27.2249 20.5019 27.0809 20.8139C26.9369 21.1259 26.8649 21.4739 26.8649 21.8579C26.8649 22.1539 26.9169 22.3739 27.0209 22.5179C27.1329 22.6619 27.2769 22.7339 27.4529 22.7339Z" fill="white"/>
</svg>
